<?xml version="1.0" encoding="UTF-8" standalone="no"?>
<svg
   xmlns:dc="http://purl.org/dc/elements/1.1/"
   xmlns:cc="http://creativecommons.org/ns#"
   xmlns:rdf="http://www.w3.org/1999/02/22-rdf-syntax-ns#"
   xmlns:svg="http://www.w3.org/2000/svg"
   xmlns="http://www.w3.org/2000/svg"
   xmlns:sodipodi="http://sodipodi.sourceforge.net/DTD/sodipodi-0.dtd"
   xmlns:inkscape="http://www.inkscape.org/namespaces/inkscape"
   version="1.0"
   width="700.000000pt"
   height="700.000000pt"
   viewBox="0 0 700.000000 700.000000"
   preserveAspectRatio="xMidYMid meet"
   id="svg2"
   inkscape:version="0.48.5 r10040"
   sodipodi:docname="safari-pinned-tab.svg">
  <defs
     id="defs12" />
  <sodipodi:namedview
     pagecolor="#ffffff"
     bordercolor="#666666"
     borderopacity="1"
     objecttolerance="10"
     gridtolerance="10"
     guidetolerance="10"
     inkscape:pageopacity="0"
     inkscape:pageshadow="2"
     inkscape:window-width="640"
     inkscape:window-height="480"
     id="namedview10"
     showgrid="false"
     inkscape:zoom="0.26971429"
     inkscape:cx="437.5"
     inkscape:cy="437.5"
     inkscape:window-x="108"
     inkscape:window-y="392"
     inkscape:window-maximized="0"
     inkscape:current-layer="g6" />
  <metadata
     id="metadata4">
Created by potrace 1.11, written by Peter Selinger 2001-2013
<rdf:RDF>
  <cc:Work
     rdf:about="">
    <dc:format>image/svg+xml</dc:format>
    <dc:type
       rdf:resource="http://purl.org/dc/dcmitype/StillImage" />
  </cc:Work>
</rdf:RDF>
</metadata>
  <g
     transform="translate(0.000000,700.000000) scale(0.100000,-0.100000)"
     fill="#000000"
     stroke="none"
     id="g6">
    <path
       d="M235 6986 c-95 -30 -163 -88 -204 -175 l-26 -56 0 -3255 0 -3255 26 -55 c33 -70 89 -126 159 -159 l55 -26 3255 0 3255 0 55 26 c70 33 126 89 159 159 l26 55 0 3255 0 3255 -26 56 c-33 69 -88 124 -159 158 l-55 26 -3240 2 c-2594 1 -3248 -1 -3280 -11z"
       id="path8" />
    <g
       id="g70"
       transform="matrix(56.64191,0,0,56.64191,3476.1281,2896.5211)">
      <path
         inkscape:connector-curvature="0"
         d="m 0,0 -17.367,34.531 c -1.071,2.196 -3.817,3.292 -8.254,3.292 -4.437,0 -7.264,-1.157 -8.455,-3.447 l -24.238,-47.855 c -1.014,-2.146 -0.431,-3.243 1.764,-3.279 l 12.22,-0.083 c 1.981,0.046 3.377,0.907 4.186,2.587 l 12.175,25.774 c 1.502,3.829 3.03,3.829 4.58,0 l 12.069,-24.33 c 1.933,-2.696 3.135,-4.031 9.938,-4.031 L 0,-16.841 0,0 z"
         style="fill:#ffffff;fill-opacity:1;fill-rule:nonzero;stroke:none"
         id="path72" />
    </g>
    <g
       id="g74"
       transform="matrix(56.64191,0,0,56.64191,3564.1891,2896.5211)">
      <path
         inkscape:connector-curvature="0"
         d="m 0,0 17.367,34.531 c 1.072,2.196 3.818,3.292 8.254,3.292 4.437,0 7.264,-1.157 8.455,-3.447 l 24.238,-47.855 c 1.014,-2.146 0.431,-3.243 -1.764,-3.279 l -12.219,-0.083 c -1.982,0.046 -3.378,0.907 -4.186,2.587 L 27.969,11.52 c -1.502,3.829 -3.029,3.829 -4.58,0 L 11.32,-12.81 C 9.388,-15.506 8.185,-16.841 1.382,-16.841 L 0,-16.841 0,0 z"
         style="fill:#57b3d7;fill-opacity:1;fill-rule:nonzero;stroke:none"
         id="path76" />
    </g>
  </g>
</svg>
